<?xml version="1.0" encoding="utf-8"?>
<!-- Generator: Adobe Illustrator 24.2.0, SVG Export Plug-In . SVG Version: 6.00 Build 0)  -->
<svg version="1.1" id="Layer_1" xmlns="http://www.w3.org/2000/svg" xmlns:xlink="http://www.w3.org/1999/xlink" x="0px" y="0px"
	 viewBox="0 0 180 180" style="enable-background:new 0 0 180 180;" xml:space="preserve">
<style type="text/css">
	.st0{fill:#FFD600;}
	.st1{fill:#000001;}
</style>
<path class="st0" d="M0,180V0h180v180H0z"/>
<path class="st1" d="M117.7,134.7c3.5,5.6,7.2,11,15.2,11c6.7,0,10.2-3.3,10.2-7.9c0-5.5-3.6-7.5-11-10.7l-4-1.7
	c-11.6-4.9-19.4-11.1-19.4-24.2c0-12.1,9.2-21.2,23.6-21.2c10.3,0,17.6,3.6,23,12.9l-12.6,8c-2.8-4.9-5.8-6.9-10.4-6.9
	c-4.7,0-7.7,3-7.7,6.9c0,4.8,3,6.8,9.9,9.8l4,1.7c13.7,5.8,21.5,11.8,21.5,25.2c0,14.5-11.4,22.4-26.8,22.4
	c-15,0-23.5-7.5-28.2-16.8L117.7,134.7z M59.8,135.1c2.5,4.5,6.4,8,11.9,8c5.3,0,8.3-2.1,8.3-10.2V80h16.7v55.5
	c0,16.8-9.8,24.5-24,24.5c-12.9,0-22.2-8.7-26-16.8L59.8,135.1z"/>
</svg>
